<svg width="25" height="24" viewBox="0 0 25 24" fill="none" xmlns="http://www.w3.org/2000/svg">
<path d="M17.9992 19.3875L16.1992 11.1875L19.6992 7.6875C21.1992 6.1875 21.6992 4.1875 21.1992 3.1875C20.1992 2.6875 18.1992 3.1875 16.6992 4.6875L13.1992 8.1875L4.99922 6.3875C4.49922 6.2875 4.09922 6.4875 3.89922 6.8875L3.59922 7.3875C3.39922 7.8875 3.49922 8.3875 3.89922 8.6875L9.19922 12.1875L7.19922 15.1875H4.19922L3.19922 16.1875L6.19922 18.1875L8.19922 21.1875L9.19922 20.1875V17.1875L12.1992 15.1875L15.6992 20.4875C15.9992 20.8875 16.4992 20.9875 16.9992 20.7875L17.4992 20.5875C17.8992 20.2875 18.0992 19.8875 17.9992 19.3875Z" stroke="white" stroke-width="2" stroke-linecap="round" stroke-linejoin="round"/>
</svg>
