<svg width="24" height="24" viewBox="0 0 24 24" fill="none" xmlns="http://www.w3.org/2000/svg">
<path d="M17.8 19.3875L16 11.1875L19.5 7.6875C21 6.1875 21.5 4.1875 21 3.1875C20 2.6875 18 3.1875 16.5 4.6875L13 8.1875L4.8 6.3875C4.3 6.2875 3.9 6.4875 3.7 6.8875L3.4 7.3875C3.2 7.8875 3.3 8.3875 3.7 8.6875L9 12.1875L7 15.1875H4L3 16.1875L6 18.1875L8 21.1875L9 20.1875V17.1875L12 15.1875L15.5 20.4875C15.8 20.8875 16.3 20.9875 16.8 20.7875L17.3 20.5875C17.7 20.2875 17.9 19.8875 17.8 19.3875Z" stroke="black" stroke-width="2" stroke-linecap="round" stroke-linejoin="round"/>
</svg>
