<svg width="24" height="24" viewBox="0 0 24 24" fill="none" xmlns="http://www.w3.org/2000/svg">
<path d="M7.1708 10.7065L12.0008 12.0005L16.8308 13.2945L21.6603 14.589C22.8293 10.2255 20.9248 5.76346 17.2738 3.50046C16.4404 2.98463 15.5358 2.59412 14.5888 2.34146C13.5018 2.04901 12.3733 1.94217 11.2508 2.02546C7.1323 2.33546 3.4708 5.19646 2.3418 9.41196L7.1708 10.7065Z" stroke="white" stroke-width="2" stroke-linecap="round" stroke-linejoin="round"/>
<path d="M8.13672 10.9658C8.13672 10.9658 8.54222 8.4863 10.1552 6.3303C11.7682 4.1743 14.5882 2.3418 14.5882 2.3418C14.5882 2.3418 16.1147 5.3393 16.4337 8.0128C16.7527 10.6863 15.8637 13.0368 15.8637 13.0368" stroke="white" stroke-width="2" stroke-linecap="round" stroke-linejoin="round"/>
<path d="M2.341 9.41217L7.1705 10.7062L12 12.0002M12 12.0002L16.829 13.2942L21.659 14.5887M12 12.0002L9.25 22.0002M2 22.0002H22M11.25 2.02567C12.3725 1.94207 13.501 2.04856 14.588 2.34067C15.535 2.59365 16.4397 2.9845 17.273 3.50067" stroke="white" stroke-width="2" stroke-linecap="round" stroke-linejoin="round"/>
</svg>
