<svg width="24" height="25" viewBox="0 0 24 25" fill="none" xmlns="http://www.w3.org/2000/svg">
<path d="M18.3684 13.6463V10.1685C18.3684 8.47753 17.6975 6.85578 16.5032 5.66007C15.3089 4.46436 13.689 3.79261 12 3.79261C10.311 3.79261 8.69114 4.46436 7.49683 5.66007C6.30252 6.85578 5.63158 8.47753 5.63158 10.1685V13.6463C5.63158 15.3372 6.30252 16.959 7.49683 18.1548C8.69114 19.3505 10.311 20.0222 12 20.0222C13.689 20.0222 15.3089 19.3505 16.5032 18.1548C17.6975 16.959 18.3684 15.3372 18.3684 13.6463ZM9.8521 15.5533C9.90594 15.4989 9.96998 15.4558 10.0405 15.4264C10.1111 15.3969 10.1867 15.3818 10.2632 15.3818C10.3396 15.3818 10.4152 15.3969 10.4858 15.4264C10.5563 15.4558 10.6204 15.4989 10.6742 15.5533C10.848 15.7282 11.0546 15.8669 11.2821 15.9616C11.5096 16.0564 11.7536 16.1051 12 16.1051C12.2464 16.1051 12.4904 16.0564 12.7179 15.9616C12.9454 15.8669 13.152 15.7282 13.3258 15.5533C13.4348 15.4441 13.5827 15.3828 13.7368 15.3828C13.891 15.3828 14.0389 15.4441 14.1479 15.5533C14.2569 15.6624 14.3182 15.8104 14.3182 15.9648C14.3182 16.1192 14.2569 16.2672 14.1479 16.3763C12.1389 18.3644 8.90263 16.5038 9.8521 15.5533Z" fill="#008085"/>
<path d="M21.2632 9.00929H20.6032C20.3172 6.92831 19.2883 5.02133 17.7069 3.64092C16.1253 2.26051 14.0982 1.5 12 1.5C9.90189 1.5 7.87465 2.26051 6.2932 3.64092C4.71168 5.02133 3.68284 6.92831 3.39684 9.00929H2.73684C2.2762 9.00929 1.83443 9.19253 1.50871 9.51859C1.18299 9.84472 1 10.287 1 10.7482V14.226C1 14.6871 1.18299 15.1294 1.50871 15.4555C1.83443 15.7816 2.2762 15.9648 2.73684 15.9648H4.47368C4.62723 15.9648 4.77449 15.9037 4.88306 15.7951C4.99163 15.6864 5.05263 15.539 5.05263 15.3852V9.58894C5.05442 9.44999 5.0063 9.31504 4.91704 9.20868C4.82777 9.10227 4.70331 9.03153 4.56632 9.00929C4.84661 7.23721 5.74929 5.6234 7.112 4.45816C8.47467 3.29291 10.2079 2.65272 12 2.65272C13.7921 2.65272 15.5253 3.29291 16.8881 4.45816C18.2507 5.6234 19.1534 7.23721 19.4337 9.00929C19.2967 9.03153 19.1722 9.10227 19.083 9.20868C18.9937 9.31504 18.9456 9.44999 18.9474 9.58894V15.3852C18.9474 15.539 19.0084 15.6864 19.1169 15.7951C19.2255 15.9037 19.3728 15.9648 19.5263 15.9648C19.5268 17.4551 19.0058 18.8984 18.0539 20.0441C17.1021 21.1898 15.7795 21.9654 14.3158 22.2364C14.3413 22.0313 14.3229 21.8231 14.2617 21.6257C14.2005 21.4284 14.0981 21.2463 13.9611 21.0916C13.8242 20.9369 13.6559 20.8133 13.4675 20.7288C13.2791 20.6444 13.0749 20.6011 12.8684 20.6018H11.7105C11.3267 20.6018 10.9585 20.7545 10.6871 21.0263C10.4156 21.298 10.2632 21.6666 10.2632 22.051C10.2632 22.4353 10.4156 22.8038 10.6871 23.0756C10.9585 23.3473 11.3267 23.5 11.7105 23.5H13.1579C15.154 23.5 17.0683 22.7061 18.4798 21.293C19.8913 19.8799 20.6842 17.9633 20.6842 15.9648H21.2632C21.7238 15.9648 22.1656 15.7816 22.4913 15.4555C22.817 15.1294 23 14.6871 23 14.226V10.7482C23 10.287 22.817 9.84472 22.4913 9.51859C22.1656 9.19253 21.7238 9.00929 21.2632 9.00929Z" fill="#008085"/>
</svg>
