<svg width="25" height="24" viewBox="0 0 25 24" fill="none" xmlns="http://www.w3.org/2000/svg">
<path d="M3.59961 11H4.64461M4.64461 11H20.5546M4.64461 11C4.65661 10.9487 4.66994 10.8977 4.68461 10.847C4.73806 10.6875 4.80152 10.5315 4.87461 10.38L6.42161 6.9C6.72661 6.213 6.87961 5.868 7.12161 5.616C7.33561 5.393 7.59761 5.223 7.88761 5.118C8.21661 5 8.59261 5 9.34561 5H15.8536C16.6056 5 16.9836 5 17.3116 5.118C17.6016 5.223 17.8636 5.393 18.0766 5.616C18.3186 5.868 18.4716 6.212 18.7766 6.899L20.3296 10.392C20.4286 10.615 20.4796 10.729 20.5146 10.847C20.5293 10.897 20.5426 10.948 20.5546 11M4.64461 11C4.63205 11.0575 4.62204 11.1156 4.61461 11.174C4.59961 11.3 4.59961 11.426 4.59961 11.68V17M20.5546 11H21.5996M20.5546 11C20.5679 11.058 20.5769 11.116 20.5836 11.174C20.5996 11.298 20.5996 11.424 20.5996 11.674V17M4.59961 17H8.59961M4.59961 17V18C4.59961 18.5304 4.81032 19.0391 5.1854 19.4142C5.56047 19.7893 6.06918 20 6.59961 20C7.13004 20 7.63875 19.7893 8.01382 19.4142C8.3889 19.0391 8.59961 18.5304 8.59961 18V17M20.5996 17H16.5996M20.5996 17V18C20.5996 18.5304 20.3889 19.0391 20.0138 19.4142C19.6387 19.7893 19.13 20 18.5996 20C18.0692 20 17.5605 19.7893 17.1854 19.4142C16.8103 19.0391 16.5996 18.5304 16.5996 18V17M16.5996 17H8.59961" stroke="white" stroke-width="2" stroke-linecap="round" stroke-linejoin="round"/>
</svg>
