<svg width="24" height="24" viewBox="0 0 24 24" fill="none" xmlns="http://www.w3.org/2000/svg">
<path d="M12.0144 6.99101C13.3384 6.99101 14.6081 7.51662 15.5443 8.45221C16.4805 9.3878 17.0064 10.6567 17.0064 11.9799M4.96585 13.287L7.62157 11.4411C8.02936 11.1427 8.30867 10.7007 8.40318 10.2044C8.49767 9.7081 8.40032 9.19449 8.13075 8.76714C7.92109 8.4678 7.73139 8.12857 7.5417 7.76937C7.41092 7.52646 7.23117 7.31329 7.01379 7.14331C6.79642 6.97334 6.54615 6.85023 6.27876 6.78179C6.01139 6.71335 5.73272 6.70105 5.46035 6.74566C5.18798 6.79027 4.92782 6.89084 4.69629 7.041L3.6979 7.65961C3.44955 7.76876 3.24696 7.9609 3.1249 8.20304C3.00284 8.44518 2.96892 8.72224 3.02898 8.98665C3.41067 10.5248 4.06678 11.9816 4.96585 13.287ZM4.96585 13.287C5.69952 14.4371 6.56387 15.4985 7.54169 16.4501C8.49377 17.4272 9.5558 18.291 10.7066 19.0243M11.0161 3.05987C11.3474 3.01975 11.6808 2.99975 12.0144 3C14.3976 3 16.6831 3.9461 18.3682 5.63016C20.0533 7.31423 21 9.59831 21 11.9799C21.0003 12.3134 20.9802 12.6466 20.9401 12.9777M15.0097 20.9599C13.4621 20.5911 11.9941 19.9453 10.6766 19.0541L12.4937 16.45C12.7924 16.0424 13.2347 15.7633 13.7313 15.6688C14.2278 15.5744 14.7418 15.6717 15.1694 15.9411C15.4988 16.1506 15.8383 16.3402 16.1678 16.5298C16.4158 16.6509 16.6359 16.8222 16.8144 17.0327C16.9929 17.2433 17.1257 17.4884 17.2044 17.7529C17.2832 18.0173 17.3063 18.2952 17.2723 18.5689C17.2382 18.8427 17.1477 19.1064 17.0064 19.3435L16.3874 20.2913C16.2769 20.55 16.0766 20.76 15.8235 20.8828C15.5703 21.0056 15.2813 21.0329 15.0097 20.9599Z" stroke="white" stroke-width="2" stroke-linecap="round" stroke-linejoin="round"/>
</svg>
