<svg width="24" height="24" viewBox="0 0 24 24" fill="none" xmlns="http://www.w3.org/2000/svg">
<path d="M17.5533 16.7498C16.1468 15.3435 14.2392 14.5534 12.2503 14.5534C10.2613 14.5534 8.35376 15.3435 6.94727 16.7498M18.0003 3.80383C16.6222 3.00822 14.9845 2.79261 13.4475 3.20444C11.9104 3.61627 10.5999 4.6218 9.80427 5.99984L20.1963 11.9998C20.9919 10.6218 21.2075 8.98408 20.7957 7.44704C20.3838 5.91 19.3783 4.59951 18.0003 3.80383Z" stroke="black" stroke-width="2" stroke-linecap="round" stroke-linejoin="round"/>
<path d="M16.732 9.9993C18.39 7.1293 18.957 4.3553 18 3.8033C17.043 3.2513 14.925 5.1293 13.268 7.9993M15 8.9993L12 14.1953M3 19.2493C3.31129 19.0945 3.65249 19.0092 4 18.9993C4.3895 18.9911 4.77512 19.0779 5.12358 19.2521C5.47203 19.4264 5.77283 19.6828 6 19.9993C6.22717 20.3158 6.52797 20.5722 6.87642 20.7464C7.22488 20.9207 7.6105 21.0075 8 20.9993C8.3895 21.0075 8.77512 20.9207 9.12358 20.7464C9.47203 20.5722 9.77283 20.3158 10 19.9993C10.2272 19.6828 10.528 19.4264 10.8764 19.2521C11.2249 19.0779 11.6105 18.9911 12 18.9993C12.3895 18.9911 12.7751 19.0779 13.1236 19.2521C13.472 19.4264 13.7728 19.6828 14 19.9993C14.2272 20.3158 14.528 20.5722 14.8764 20.7464C15.2249 20.9207 15.6105 21.0075 16 20.9993C16.3895 21.0075 16.7751 20.9207 17.1236 20.7464C17.472 20.5722 17.7728 20.3158 18 19.9993C18.2272 19.6828 18.528 19.4264 18.8764 19.2521C19.2249 19.0779 19.6105 18.9911 20 18.9993C20.3475 19.0092 20.6887 19.0945 21 19.2493" stroke="black" stroke-width="2" stroke-linecap="round" stroke-linejoin="round"/>
</svg>
