<svg width="25" height="24" viewBox="0 0 25 24" fill="none" xmlns="http://www.w3.org/2000/svg">
<path d="M17.9537 16.7498C16.5472 15.3435 14.6396 14.5534 12.6507 14.5534C10.6617 14.5534 8.75415 15.3435 7.34766 16.7498M18.4007 3.80383C17.0226 3.00822 15.3849 2.79261 13.8479 3.20444C12.3108 3.61627 11.0003 4.6218 10.2047 5.99984L20.5967 11.9998C21.3923 10.6218 21.6079 8.98408 21.1961 7.44704C20.7842 5.91 19.7787 4.59951 18.4007 3.80383Z" stroke="white" stroke-width="2" stroke-linecap="round" stroke-linejoin="round"/>
<path d="M17.1324 9.9993C18.7904 7.1293 19.3574 4.3553 18.4004 3.8033C17.4434 3.2513 15.3254 5.1293 13.6684 7.9993M15.4004 8.9993L12.4004 14.1953M3.40039 19.2493C3.71168 19.0945 4.05288 19.0092 4.40039 18.9993C4.78989 18.9911 5.17551 19.0779 5.52397 19.2521C5.87242 19.4264 6.17322 19.6828 6.40039 19.9993C6.62756 20.3158 6.92836 20.5722 7.27681 20.7464C7.62527 20.9207 8.01089 21.0075 8.40039 20.9993C8.78989 21.0075 9.17551 20.9207 9.52397 20.7464C9.87242 20.5722 10.1732 20.3158 10.4004 19.9993C10.6276 19.6828 10.9284 19.4264 11.2768 19.2521C11.6253 19.0779 12.0109 18.9911 12.4004 18.9993C12.7899 18.9911 13.1755 19.0779 13.524 19.2521C13.8724 19.4264 14.1732 19.6828 14.4004 19.9993C14.6276 20.3158 14.9284 20.5722 15.2768 20.7464C15.6253 20.9207 16.0109 21.0075 16.4004 20.9993C16.7899 21.0075 17.1755 20.9207 17.524 20.7464C17.8724 20.5722 18.1732 20.3158 18.4004 19.9993C18.6276 19.6828 18.9284 19.4264 19.2768 19.2521C19.6253 19.0779 20.0109 18.9911 20.4004 18.9993C20.7479 19.0092 21.0891 19.0945 21.4004 19.2493" stroke="white" stroke-width="2" stroke-linecap="round" stroke-linejoin="round"/>
</svg>
