<svg width="24" height="24" viewBox="0 0 24 24" fill="none" xmlns="http://www.w3.org/2000/svg">
<rect width="24" height="24" fill="#0077FF"/>
<path d="M13.6 10.9576V7.87758C13.6 7.18342 13.4792 7.04425 12.816 7.04425L10.936 7.00008C10.3504 7.00008 10.0576 7.00008 9.93919 7.19758C9.82079 7.39508 9.95199 7.66591 10.2136 8.20591C10.3592 8.5059 10.4376 8.7234 10.4376 9.06007V11.2767C10.4376 11.9767 10.4376 12.3275 10.1816 12.4317C9.92559 12.535 9.71359 12.3 9.28799 11.83C8.248 10.6767 7.7056 9.23673 7.34961 7.66675C7.27601 7.34175 7.23921 7.17925 7.12881 7.08925C7.01841 6.99925 6.86081 7.00008 6.54721 7.00008H4.78722C4.40162 7.00008 4.20882 7.00008 4.08802 7.14175C3.96803 7.28425 3.99123 7.46591 4.03763 7.82841C4.46002 11.1009 7.22241 16.4667 12.3256 16.9783C13.2296 17.0683 13.6 16.8142 13.6 15.7825C13.6 15.1975 13.588 14.2525 14.2944 14.1284C14.6648 14.0634 14.9136 14.2009 15.3272 14.5617C16.044 15.1883 16.42 15.9533 16.6816 16.5342C16.8552 16.9192 16.984 17 17.3919 17H19.0511C19.8895 17 20.1175 16.7867 19.7439 15.9667C19.3217 15.0471 18.7239 14.2268 17.9871 13.5559C17.4783 13.1 17.2247 12.8725 17.2111 12.7042C17.1959 12.5367 17.3823 12.2992 17.7551 11.8242C18.4751 10.9059 19.4559 9.46506 19.9135 7.93591C20.1407 7.17758 19.9271 7.00008 19.1903 7.00008H17.6999C16.9776 7.00008 16.9784 6.97425 16.808 7.82758C16.5312 9.21173 15.6256 10.5426 14.7744 11.4484C14.3704 11.8784 14.1264 12.1375 13.8744 12.0317C13.6224 11.9259 13.6 11.6042 13.6 10.9576Z" fill="white"/>
</svg>
