<svg width="24" height="24" viewBox="0 0 24 24" fill="none" xmlns="http://www.w3.org/2000/svg">
<g clip-path="url(#clip0_2063_5892)">
<path d="M0.600697 11.8563C0.600139 13.8728 1.12702 15.8417 2.12888 17.5771L0.504883 23.5066L6.57298 21.9156C8.25134 22.8292 10.1318 23.308 12.0427 23.3081H12.0478C18.3561 23.3081 23.4913 18.1748 23.494 11.8653C23.4952 8.80792 22.3056 5.93295 20.1443 3.76997C17.9834 1.60718 15.1094 0.415458 12.0473 0.414062C5.73819 0.414062 0.603394 5.54709 0.60079 11.8563" fill="url(#paint0_linear_2063_5892)"/>
<path d="M0.192308 11.8527C0.191657 13.9417 0.737425 15.981 1.77501 17.7786L0.0927734 23.9207L6.37845 22.2726C8.11035 23.2168 10.0603 23.7147 12.0445 23.7154H12.0496C18.5843 23.7154 23.9039 18.3975 23.9067 11.8621C23.9078 8.69488 22.6755 5.71656 20.437 3.47609C18.1982 1.23591 15.2214 0.00130233 12.0496 0C5.5138 0 0.194913 5.31721 0.192308 11.8527ZM3.93566 17.469L3.70096 17.0965C2.71435 15.5277 2.19361 13.7149 2.19435 11.8534C2.1964 6.4213 6.61724 2.00186 12.0533 2.00186C14.6859 2.00298 17.1599 3.02921 19.0208 4.89116C20.8815 6.7533 21.9054 9.22865 21.9048 11.8614C21.9024 17.2935 17.4814 21.7135 12.0496 21.7135H12.0457C10.2771 21.7126 8.54245 21.2376 7.0297 20.34L6.6697 20.1265L2.93966 21.1045L3.93566 17.469Z" fill="url(#paint1_linear_2063_5892)"/>
<path d="M9.08581 6.89771C8.86386 6.4044 8.63027 6.39445 8.4192 6.3858C8.24637 6.37836 8.04879 6.37892 7.85139 6.37892C7.65381 6.37892 7.33279 6.45324 7.06144 6.74952C6.78981 7.04608 6.02441 7.76273 6.02441 9.22031C6.02441 10.6779 7.08609 12.0866 7.23409 12.2845C7.38227 12.482 9.28367 15.5689 12.295 16.7564C14.7977 17.7433 15.307 17.547 15.8502 17.4975C16.3934 17.4482 17.6031 16.7811 17.8499 16.0892C18.0969 15.3975 18.0969 14.8046 18.0228 14.6807C17.9488 14.5572 17.7512 14.4831 17.4549 14.335C17.1586 14.1869 15.702 13.4701 15.4305 13.3712C15.1588 13.2724 14.9613 13.2231 14.7638 13.5198C14.5662 13.8159 13.9988 14.4831 13.8259 14.6807C13.6532 14.8787 13.4802 14.9034 13.184 14.7552C12.8876 14.6065 11.9334 14.2941 10.8014 13.2849C9.92069 12.4996 9.32609 11.5298 9.15325 11.2331C8.98041 10.937 9.13474 10.7764 9.2833 10.6288C9.41641 10.496 9.57967 10.2828 9.72795 10.1099C9.87567 9.93687 9.92497 9.81343 10.0238 9.61585C10.1226 9.41808 10.0732 9.24506 9.9992 9.09687C9.92497 8.94868 9.34925 7.48347 9.08581 6.89771Z" fill="white"/>
</g>
<defs>
<linearGradient id="paint0_linear_2063_5892" x1="1149.96" y1="2309.67" x2="1149.96" y2="0.414062" gradientUnits="userSpaceOnUse">
<stop stop-color="#1FAF38"/>
<stop offset="1" stop-color="#60D669"/>
</linearGradient>
<linearGradient id="paint1_linear_2063_5892" x1="1190.79" y1="2392.07" x2="1190.79" y2="0" gradientUnits="userSpaceOnUse">
<stop stop-color="#F9F9F9"/>
<stop offset="1" stop-color="white"/>
</linearGradient>
<clipPath id="clip0_2063_5892">
<rect width="24" height="24" fill="white"/>
</clipPath>
</defs>
</svg>
