<svg width="24" height="24" viewBox="0 0 24 24" fill="none" xmlns="http://www.w3.org/2000/svg">
<path d="M13.0013 3V4H11.0013V3H13.0013ZM12.0013 10.11L17.3813 11.88L19.7713 12.66L18.6513 16.63C18.1113 16.33 17.7113 15.92 17.5113 15.69L16.0013 13.96L14.4913 15.68C14.1513 16.08 13.2113 17 12.0013 17C10.7913 17 9.85133 16.08 9.51133 15.68L8.00133 13.96L6.49132 15.68C6.29132 15.91 5.89132 16.31 5.35132 16.61L4.22132 12.65L6.62133 11.86L12.0013 10.11ZM15.0013 1H9.00133V4H6.00133C4.90133 4 4.00132 4.9 4.00132 6V10.62L2.71133 11.04C2.58308 11.0794 2.464 11.144 2.36107 11.2301C2.25815 11.3161 2.17346 11.4219 2.11198 11.5411C2.05049 11.6604 2.01345 11.7907 2.00304 11.9244C1.99262 12.0582 2.00904 12.1927 2.05132 12.32L3.95133 19H4.00132C5.60132 19 7.02133 18.12 8.00133 17C8.98133 18.12 10.4013 19 12.0013 19C13.6013 19 15.0213 18.12 16.0013 17C16.9813 18.12 18.4013 19 20.0013 19H20.0513L21.9413 12.32C22.0213 12.06 22.0013 11.78 21.8813 11.54C21.7613 11.3 21.5413 11.12 21.2813 11.04L20.0013 10.62V6C20.0013 4.9 19.1013 4 18.0013 4H15.0013V1ZM6.00133 9.97V6H18.0013V9.97L12.0013 8L6.00133 9.97ZM16.0013 19.68C14.7813 20.53 13.3913 20.96 12.0013 20.96C10.6113 20.96 9.22133 20.53 8.00133 19.68C6.78133 20.53 5.39132 21 4.00132 21H2.00132V23H4.00132C5.38132 23 6.74133 22.65 8.00133 22.01C9.26133 22.65 10.6313 22.98 12.0013 22.98C13.3713 22.98 14.7413 22.66 16.0013 22.01C17.2613 22.66 18.6213 23 20.0013 23H22.0013V21H20.0013C18.6113 21 17.2213 20.53 16.0013 19.68Z" fill="black"/>
</svg>
