<svg width="25" height="24" viewBox="0 0 25 24" fill="none" xmlns="http://www.w3.org/2000/svg">
<path d="M13.8021 3V4H11.8021V3H13.8021ZM12.8021 10.11L18.1821 11.88L20.5721 12.66L19.4521 16.63C18.9121 16.33 18.5121 15.92 18.3121 15.69L16.8021 13.96L15.2921 15.68C14.9521 16.08 14.0121 17 12.8021 17C11.5921 17 10.6521 16.08 10.3121 15.68L8.80211 13.96L7.29211 15.68C7.09211 15.91 6.69211 16.31 6.15211 16.61L5.02211 12.65L7.42211 11.86L12.8021 10.11ZM15.8021 1H9.80211V4H6.80211C5.70211 4 4.80211 4.9 4.80211 6V10.62L3.51211 11.04C3.38386 11.0794 3.26478 11.144 3.16185 11.2301C3.05893 11.3161 2.97424 11.4219 2.91276 11.5411C2.85127 11.6604 2.81424 11.7907 2.80382 11.9244C2.79341 12.0582 2.80982 12.1927 2.85211 12.32L4.75211 19H4.80211C6.40211 19 7.82211 18.12 8.80211 17C9.78211 18.12 11.2021 19 12.8021 19C14.4021 19 15.8221 18.12 16.8021 17C17.7821 18.12 19.2021 19 20.8021 19H20.8521L22.7421 12.32C22.8221 12.06 22.8021 11.78 22.6821 11.54C22.5621 11.3 22.3421 11.12 22.0821 11.04L20.8021 10.62V6C20.8021 4.9 19.9021 4 18.8021 4H15.8021V1ZM6.80211 9.97V6H18.8021V9.97L12.8021 8L6.80211 9.97ZM16.8021 19.68C15.5821 20.53 14.1921 20.96 12.8021 20.96C11.4121 20.96 10.0221 20.53 8.80211 19.68C7.58211 20.53 6.19211 21 4.80211 21H2.80211V23H4.80211C6.18211 23 7.54211 22.65 8.80211 22.01C10.0621 22.65 11.4321 22.98 12.8021 22.98C14.1721 22.98 15.5421 22.66 16.8021 22.01C18.0621 22.66 19.4221 23 20.8021 23H22.8021V21H20.8021C19.4121 21 18.0221 20.53 16.8021 19.68Z" fill="white"/>
</svg>
